<svg version="1.1" id="Layer_1" xmlns="http://www.w3.org/2000/svg" xmlns:xlink="http://www.w3.org/1999/xlink" x="0px" y="0px"
	 width="100%" viewBox="0 0 297 259" enable-background="new 0 0 297 259" xml:space="preserve">
<path fill="#FEFEFE" opacity="1.000000" stroke="none" 
	d="
M200.000000,260.000000 
	C133.333344,260.000000 67.166679,260.000000 1.000018,260.000000 
	C1.000012,173.666687 1.000012,87.333366 1.000006,1.000041 
	C99.999969,1.000027 198.999939,1.000027 297.999939,1.000014 
	C297.999939,87.333290 297.999939,173.666580 297.999969,259.999939 
	C265.500000,260.000000 233.000000,260.000000 200.000000,260.000000 
M215.161087,166.219818 
	C214.855606,166.035980 214.550125,165.852142 214.257629,165.831375 
	C214.257629,165.831375 214.322998,165.681412 214.083191,165.037674 
	C212.570969,162.483978 211.058746,159.930283 209.546524,157.376587 
	C209.140244,157.455978 208.733963,157.535370 208.327682,157.614761 
	C208.545380,160.744965 208.763062,163.875183 209.030579,167.629410 
	C209.433563,168.096832 209.836548,168.564240 210.387741,169.444290 
	C210.540436,169.697708 210.726868,169.923248 211.065826,170.793030 
	C214.368546,174.232620 217.671265,177.672226 221.294159,181.709961 
	C224.780182,183.542389 228.266205,185.374802 231.805984,187.176208 
	C231.805984,187.176208 231.799179,187.114532 231.993774,187.615067 
	C232.328537,187.702438 232.663284,187.789810 233.555298,188.307846 
	C235.701981,189.218384 237.848679,190.128922 240.350800,191.585297 
	C241.556503,192.072830 242.762207,192.560349 244.373077,193.603149 
	C248.904221,196.108856 253.435349,198.614548 258.289948,201.696899 
	C261.909271,205.111450 265.528595,208.525986 269.344666,212.611816 
	C271.269165,216.657547 273.193634,220.703262 275.588989,225.738846 
	C278.046021,216.352570 276.557098,208.794006 271.026489,201.263046 
	C268.677277,198.964355 266.328094,196.665680 263.517212,193.868530 
	C262.041718,192.906204 260.566193,191.943878 258.723785,190.405273 
	C255.893646,188.905609 253.063507,187.405945 249.792374,185.328903 
	C247.506485,184.296478 245.220596,183.264038 242.310654,181.903992 
	C239.985077,180.894547 237.659485,179.885101 234.977158,178.357010 
	C234.376236,178.207397 233.775314,178.057770 232.957214,177.475845 
	C232.715698,177.207031 232.420593,177.120056 231.457504,176.858414 
	C229.362045,175.802353 227.266586,174.746292 224.712723,173.185928 
	C221.850845,171.443527 218.988983,169.701126 215.978500,167.434555 
	C215.735275,167.189545 215.492035,166.944534 215.227692,166.833618 
	C215.227692,166.833618 215.329712,166.744095 215.161087,166.219818 
M225.644363,168.953415 
	C226.434189,168.604034 227.223999,168.254669 228.666382,167.867432 
	C229.780548,167.256424 230.894714,166.645432 232.717484,165.944489 
	C235.201355,164.664185 237.685211,163.383881 240.779663,161.944336 
	C241.527145,161.558624 242.274612,161.172913 243.665848,160.619141 
	C246.491714,158.775406 249.317581,156.931671 252.747330,154.955978 
	C253.540146,154.327942 254.332962,153.699890 255.633652,152.939178 
	C256.133484,152.472076 256.633301,152.004974 257.767883,151.230850 
	C266.910004,143.586456 269.332214,137.478424 266.582367,130.048721 
	C263.150177,134.224045 259.543701,138.611374 255.416321,143.164139 
	C254.901657,143.662781 254.386978,144.161423 253.208588,144.876312 
	C250.980789,146.534485 248.752991,148.192657 245.923645,149.930283 
	C244.932877,150.582779 243.942093,151.235275 242.268936,151.984070 
	C240.856232,152.742188 239.443542,153.500320 237.422928,154.432251 
	C235.955215,155.317184 234.487518,156.202118 232.331680,157.235992 
	C229.883926,158.483124 227.436172,159.730255 224.350967,161.020187 
	C223.583755,161.370422 222.816559,161.720657 221.391190,162.246017 
	C220.062271,162.895279 218.733337,163.544540 216.350861,164.708527 
	C219.919144,166.483871 222.456818,167.746445 225.644363,168.953415 
M206.903290,182.831589 
	C208.261749,184.241730 209.620193,185.651886 211.250961,187.651535 
	C212.840820,188.766449 214.430695,189.881363 216.422424,191.544144 
	C218.603043,192.751709 220.783661,193.959290 223.325058,195.734299 
	C226.853149,197.630783 230.381241,199.527267 234.331223,201.892639 
	C235.861221,202.657745 237.391205,203.422852 239.304718,204.735184 
	C241.843307,206.251511 244.381897,207.767838 247.272552,209.830978 
	C249.829163,211.609192 252.385773,213.387421 255.222092,215.747330 
	C257.122375,217.530945 259.022675,219.314560 260.984589,221.046921 
	C260.984589,221.046921 260.905701,221.032578 261.068878,221.588318 
	C261.354950,221.840820 261.640991,222.093307 262.057800,223.002655 
	C264.568085,227.344864 267.078400,231.687073 269.633270,236.106400 
	C273.680359,230.941086 272.463593,221.521088 266.829681,213.516541 
	C266.561859,213.317062 266.294067,213.117584 266.014923,212.991074 
	C266.014923,212.991074 266.078156,212.952911 265.862213,212.312454 
	C262.898895,209.655899 259.935577,206.999344 256.461700,203.907867 
	C254.773041,202.903519 253.084381,201.899185 250.932755,200.340988 
	C246.660477,198.479919 242.388199,196.618851 238.067886,194.110718 
	C237.027374,193.483444 235.986847,192.856186 234.377548,191.835480 
	C232.349548,190.853867 230.321548,189.872253 227.874329,188.318512 
	C223.915253,185.912216 219.956192,183.505920 215.645706,180.562820 
	C214.187347,179.338882 212.728989,178.114944 211.019669,176.229614 
	C209.560410,173.481934 208.101166,170.734253 206.505936,167.177094 
	C206.314499,155.760849 206.113403,144.344742 205.938278,132.928238 
	C205.893738,130.024231 205.931610,127.118973 205.931610,124.293045 
	C207.157715,124.133850 207.641693,124.015961 208.125641,124.016136 
	C225.702942,124.022507 243.280243,124.039864 260.725739,124.700676 
	C257.821594,127.557030 254.917435,130.413391 251.490692,133.340012 
	C250.978745,133.815277 250.466797,134.290543 249.288452,134.949997 
	C247.537430,136.036407 245.786407,137.122833 243.381134,138.370728 
	C239.751694,140.524673 236.122253,142.678604 231.823364,144.886063 
	C228.723251,146.561157 225.623154,148.236237 221.806335,149.903320 
	C219.540833,150.840454 216.686020,151.239624 215.189606,152.878845 
	C213.910416,154.280090 213.850677,157.131805 214.025940,159.278732 
	C214.068024,159.794464 217.403839,160.755127 218.832367,160.294327 
	C221.750137,159.353180 224.401215,157.585281 227.750412,155.764587 
	C230.134048,154.657471 232.517685,153.550369 235.624084,152.217834 
	C238.370453,150.600708 241.116837,148.983582 244.616089,147.271835 
	C247.423141,145.233353 250.230209,143.194885 253.708588,140.974121 
	C256.327332,138.350906 259.409546,136.039444 261.440063,133.020569 
	C263.658295,129.722641 265.538635,125.841438 262.819031,121.117256 
	C262.714142,120.753990 262.609253,120.390732 262.645935,119.646530 
	C262.633362,119.339874 262.481628,119.138161 262.086884,118.271904 
	C259.683228,117.276215 257.295013,115.464569 254.873383,115.418755 
	C240.381653,115.144569 225.882248,115.276947 211.385406,115.273140 
	C209.626465,115.272675 207.867508,115.273071 205.704514,115.273071 
	C205.704514,98.899956 205.715958,83.264282 205.689056,67.628685 
	C205.685913,65.807549 205.912781,63.791271 205.220169,62.224899 
	C204.617279,60.861465 202.772980,59.049622 201.642822,59.158279 
	C200.078781,59.308651 198.281479,60.811382 197.322845,62.233147 
	C196.610916,63.289051 197.021957,65.136726 197.020630,66.631805 
	C197.007751,81.128639 197.013428,95.625504 197.013809,110.122353 
	C197.013855,111.889503 197.013809,113.656647 197.013809,115.827553 
	C189.393280,115.827553 182.428696,115.825050 175.464111,115.828140 
	C165.466278,115.832581 155.468155,115.886658 145.470810,115.819527 
	C142.556503,115.799965 139.970428,116.862595 140.530457,119.792953 
	C140.848846,121.458870 143.691757,122.768112 145.580750,123.944084 
	C146.302734,124.393547 147.535080,124.025833 148.534851,124.026054 
	C162.865082,124.029236 177.195328,124.031685 191.525558,124.034210 
	C193.285309,124.034515 195.045074,124.034248 197.109207,124.034248 
	C197.109207,128.564392 197.108459,132.379868 197.109360,136.195358 
	C197.112396,149.025909 197.046768,161.857010 197.151474,174.686737 
	C197.197113,180.278366 199.316238,181.685455 204.666382,179.892410 
	C205.376312,180.665329 206.086227,181.438248 206.859131,182.027588 
	C206.859131,182.027588 206.748444,182.187012 206.903290,182.831589 
M141.500076,29.821598 
	C132.169357,29.821301 122.832054,30.023079 113.511200,29.719666 
	C109.863892,29.600939 108.379562,30.966743 107.028915,34.152893 
	C86.217728,83.245705 65.268982,132.280197 44.369175,181.335464 
	C43.689560,182.930634 43.189831,184.602432 42.461559,186.644135 
	C55.671104,186.644135 68.154228,186.518661 80.631668,186.729324 
	C83.890793,186.784363 85.169197,185.540375 86.302299,182.695587 
	C89.601677,174.412094 92.944778,166.115707 96.891243,158.131073 
	C99.458611,152.936722 99.116913,149.287369 94.830582,145.117279 
	C89.603134,140.031601 85.184105,134.114960 79.938599,128.002029 
	C88.623199,128.002029 96.296440,127.758934 103.942879,128.106140 
	C107.680046,128.275848 109.532486,127.157883 110.878395,123.652420 
	C115.432465,111.791237 120.287865,100.045380 125.062737,88.269493 
	C127.428581,82.434792 129.870102,76.630775 132.277390,70.812874 
	C132.683197,70.905357 133.089020,70.997833 133.494843,71.090317 
	C132.971268,91.974930 132.447693,112.859550 131.913483,134.167999 
	C119.970619,134.167999 108.613304,134.167999 96.490265,134.167999 
	C104.897934,143.593140 112.429329,152.695740 120.687508,161.082733 
	C127.178825,167.675293 131.826584,174.494263 130.031357,184.215912 
	C129.900772,184.923050 130.265350,185.721619 130.357590,186.240601 
	C144.636597,186.240601 158.526108,186.240601 172.730560,186.240601 
	C172.730560,167.258896 172.730560,148.694519 172.730560,129.966232 
	C163.261169,129.966232 154.109695,130.050140 144.960541,129.940430 
	C137.249054,129.847977 132.422348,122.897179 135.184311,115.889061 
	C137.094147,111.043106 141.128799,109.622238 145.998550,109.653282 
	C154.954773,109.710381 163.911606,109.669579 173.482315,109.669579 
	C173.482315,82.754997 173.482315,56.373081 173.482315,29.821596 
	C163.137512,29.821596 152.818802,29.821596 141.500076,29.821598 
M100.188843,208.134598 
	C99.456505,206.376587 98.724167,204.618576 97.941971,202.740875 
	C95.711601,203.386719 94.016754,203.877487 92.017265,204.456482 
	C92.017265,207.178436 92.017265,209.821762 92.017265,212.465103 
	C92.017265,215.225555 92.017265,217.986008 92.017265,220.466431 
	C97.420761,222.275543 97.180534,218.508057 97.852600,215.077484 
	C99.313255,217.533783 100.354385,219.284576 101.547523,221.291016 
	C102.723564,219.397415 103.714508,217.801849 105.040504,215.666794 
	C105.456680,217.877426 105.741592,219.390839 106.002403,220.776199 
	C109.630013,221.200348 110.887581,219.800980 110.741280,216.566727 
	C110.555489,212.459747 110.696320,208.337997 110.696320,204.370743 
	C106.622360,202.270493 104.421310,203.322266 103.168480,207.197174 
	C102.928551,207.939240 101.464409,208.285477 100.188843,208.134598 
M78.876137,208.442184 
	C78.752487,208.695892 78.659569,208.973526 78.489853,209.191345 
	C78.423241,209.276886 78.092857,209.300644 78.037979,209.230667 
	C76.522812,207.298615 75.027702,205.350815 73.483948,203.346817 
	C71.963737,203.677628 70.544113,203.986557 69.107513,204.299164 
	C69.107513,209.855881 69.107513,215.287140 69.107513,220.693390 
	C70.884445,220.693390 72.417442,220.693390 74.247055,220.693390 
	C74.247055,218.278214 74.247055,216.207123 74.247055,213.112839 
	C76.202217,215.724579 77.409561,217.645981 78.944267,219.255157 
	C79.693390,220.040665 81.229683,220.815857 82.085762,220.550568 
	C82.941154,220.285461 83.891052,218.736877 83.934731,217.714020 
	C84.131317,213.110413 84.020462,208.493668 84.020462,203.628632 
	C82.150322,203.628632 80.738655,203.628632 79.080666,203.628632 
	C79.007637,205.121857 78.944427,206.414398 78.876137,208.442184 
M54.718613,208.081161 
	C53.603928,212.126831 52.489243,216.172501 51.308315,220.458603 
	C57.049595,219.941010 62.005215,219.494247 67.457253,219.002731 
	C65.952202,214.702820 64.574699,210.863861 63.269508,207.000473 
	C62.543098,204.850296 62.352566,202.671051 58.956860,202.803192 
	C55.600132,202.933838 55.455902,205.088013 54.718613,208.081161 
M160.313629,205.004929 
	C160.313629,210.404831 160.313629,215.804718 160.313629,222.799347 
	C165.100159,219.417709 169.842468,217.284454 172.781372,213.680557 
	C176.392776,209.252045 173.121490,204.038177 167.371811,203.963043 
	C165.241028,203.935211 163.106018,204.229431 160.313629,205.004929 
M116.535866,221.057663 
	C119.483765,220.316025 124.651978,222.832596 124.030495,215.989227 
	C121.536972,216.147141 119.477348,216.277573 117.084068,216.429138 
	C118.668320,213.025452 125.822914,216.626022 123.418854,209.864075 
	C121.281654,209.864075 119.267403,209.864075 117.253151,209.864075 
	C117.211342,209.490311 117.169525,209.116547 117.127716,208.742783 
	C119.395508,208.388580 121.663307,208.034363 124.117424,207.651062 
	C124.117424,206.724579 124.166580,205.910553 124.098366,205.106461 
	C124.059563,204.649094 123.828880,204.207977 123.694397,203.789963 
	C109.845345,204.346405 112.396629,202.245529 112.060333,214.973373 
	C112.034035,215.968674 112.197487,216.979126 112.081871,217.960037 
	C111.752609,220.753540 113.162140,221.472305 116.535866,221.057663 
M188.898895,214.439789 
	C189.547653,218.028931 191.176620,221.034775 195.235718,220.770309 
	C199.522491,220.491013 202.241562,217.595276 202.816086,213.427094 
	C203.281784,210.048264 202.910568,206.554077 202.910568,203.229218 
	C199.261307,202.205231 198.131775,203.313965 198.013687,206.738846 
	C197.919922,209.458176 199.562927,213.158371 194.434555,215.268677 
	C193.986313,211.116150 193.592346,207.466232 193.198364,203.816315 
	C192.809097,203.529556 192.419830,203.242798 192.030563,202.956039 
	C190.909988,204.210312 189.161621,205.313751 188.815598,206.754105 
	C188.293396,208.927963 188.749863,211.336960 188.898895,214.439789 
M211.703568,203.228149 
	C208.193405,203.791931 205.363571,205.004318 204.946609,209.198868 
	C204.358002,215.120148 209.645340,214.079666 212.784348,215.832565 
	C210.883316,216.320511 209.149979,216.111374 207.506729,216.405487 
	C206.636917,216.561172 205.398544,217.510620 205.283905,218.250137 
	C205.163177,219.029007 206.121094,220.688614 206.716690,220.741745 
	C209.323090,220.974243 212.435333,221.597641 214.461578,220.464905 
	C216.270798,219.453461 217.700851,216.340485 217.743713,214.124771 
	C217.769547,212.788589 214.914948,211.265457 213.178146,210.086334 
	C212.405273,209.561569 211.197052,209.678040 210.186417,209.503464 
	C210.185028,209.131668 210.183624,208.759857 210.182236,208.388062 
	C212.306747,208.218277 214.431244,208.048492 216.534576,207.880402 
	C218.459274,203.245682 214.627274,204.018158 211.703568,203.228149 
M175.401215,217.887253 
	C176.385803,218.797058 177.342377,220.436829 178.360352,220.475891 
	C181.102631,220.581100 183.871109,220.003586 186.761566,219.682343 
	C186.761566,218.120209 186.761566,216.757065 186.761566,215.175919 
	C184.696014,215.175919 182.939819,215.175919 180.715393,215.175919 
	C180.493027,211.136658 180.280167,207.270065 180.067307,203.403473 
	C179.579224,203.143204 179.091141,202.882935 178.603058,202.622681 
	C177.569138,203.946899 175.841568,205.174103 175.640076,206.614746 
	C175.162933,210.026199 175.410400,213.539017 175.401215,217.887253 
M84.954445,208.743347 
	C84.954445,212.685181 84.954445,216.627014 84.954445,221.024231 
	C87.257507,220.615021 88.988121,220.307510 90.641907,220.013672 
	C90.641907,214.290100 90.641907,208.870499 90.641907,203.345963 
	C87.106377,203.148071 84.218071,203.249954 84.954445,208.743347 
z"/>
<path fill="#020202" opacity="1.000000" stroke="none" 
	d="
M142.000092,29.821598 
	C152.818802,29.821596 163.137512,29.821596 173.482315,29.821596 
	C173.482315,56.373081 173.482315,82.754997 173.482315,109.669579 
	C163.911606,109.669579 154.954773,109.710381 145.998550,109.653282 
	C141.128799,109.622238 137.094147,111.043106 135.184311,115.889061 
	C132.422348,122.897179 137.249054,129.847977 144.960541,129.940430 
	C154.109695,130.050140 163.261169,129.966232 172.730560,129.966232 
	C172.730560,148.694519 172.730560,167.258896 172.730560,186.240601 
	C158.526108,186.240601 144.636597,186.240601 130.357590,186.240601 
	C130.265350,185.721619 129.900772,184.923050 130.031357,184.215912 
	C131.826584,174.494263 127.178825,167.675293 120.687508,161.082733 
	C112.429329,152.695740 104.897934,143.593140 96.490265,134.167999 
	C108.613304,134.167999 119.970619,134.167999 131.913483,134.167999 
	C132.447693,112.859550 132.971268,91.974930 133.494843,71.090317 
	C133.089020,70.997833 132.683197,70.905357 132.277390,70.812874 
	C129.870102,76.630775 127.428581,82.434792 125.062737,88.269493 
	C120.287865,100.045380 115.432465,111.791237 110.878395,123.652420 
	C109.532486,127.157883 107.680046,128.275848 103.942879,128.106140 
	C96.296440,127.758934 88.623199,128.002029 79.938599,128.002029 
	C85.184105,134.114960 89.603134,140.031601 94.830582,145.117279 
	C99.116913,149.287369 99.458611,152.936722 96.891243,158.131073 
	C92.944778,166.115707 89.601677,174.412094 86.302299,182.695587 
	C85.169197,185.540375 83.890793,186.784363 80.631668,186.729324 
	C68.154228,186.518661 55.671104,186.644135 42.461559,186.644135 
	C43.189831,184.602432 43.689560,182.930634 44.369175,181.335464 
	C65.268982,132.280197 86.217728,83.245705 107.028915,34.152893 
	C108.379562,30.966743 109.863892,29.600939 113.511200,29.719666 
	C122.832054,30.023079 132.169357,29.821301 142.000092,29.821598 
z"/>
<path fill="#2592C4" opacity="1.000000" stroke="none" 
	d="
M262.504364,120.027466 
	C262.609253,120.390732 262.714142,120.753990 262.588928,121.602005 
	C261.858398,122.743065 261.357971,123.399384 260.857544,124.055710 
	C243.280243,124.039864 225.702942,124.022507 208.125641,124.016136 
	C207.641693,124.015961 207.157715,124.133850 205.931610,124.293045 
	C205.931610,127.118973 205.893738,130.024231 205.938278,132.928238 
	C206.113403,144.344742 206.314499,155.760849 206.230530,167.686676 
	C205.323685,172.022217 204.692245,175.848160 204.060791,179.674103 
	C199.316238,181.685455 197.197113,180.278366 197.151474,174.686737 
	C197.046768,161.857010 197.112396,149.025909 197.109360,136.195358 
	C197.108459,132.379868 197.109207,128.564392 197.109207,124.034248 
	C195.045074,124.034248 193.285309,124.034515 191.525558,124.034210 
	C177.195328,124.031685 162.865082,124.029236 148.534851,124.026054 
	C147.535080,124.025833 146.302734,124.393547 145.580750,123.944084 
	C143.691757,122.768112 140.848846,121.458870 140.530457,119.792953 
	C139.970428,116.862595 142.556503,115.799965 145.470810,115.819527 
	C155.468155,115.886658 165.466278,115.832581 175.464111,115.828140 
	C182.428696,115.825050 189.393280,115.827553 197.013809,115.827553 
	C197.013809,113.656647 197.013855,111.889503 197.013809,110.122353 
	C197.013428,95.625504 197.007751,81.128639 197.020630,66.631805 
	C197.021957,65.136726 196.610916,63.289051 197.322845,62.233147 
	C198.281479,60.811382 200.078781,59.308651 201.642822,59.158279 
	C202.772980,59.049622 204.617279,60.861465 205.220169,62.224899 
	C205.912781,63.791271 205.685913,65.807549 205.689056,67.628685 
	C205.715958,83.264282 205.704514,98.899956 205.704514,115.273071 
	C207.867508,115.273071 209.626465,115.272675 211.385406,115.273140 
	C225.882248,115.276947 240.381653,115.144569 254.873383,115.418755 
	C257.295013,115.464569 259.683228,117.276215 262.129089,118.832718 
	C262.218872,119.638115 262.329895,119.849426 262.504364,120.027466 
z"/>
<path fill="#111111" opacity="1.000000" stroke="none" 
	d="
M100.376953,208.474457 
	C101.464409,208.285477 102.928551,207.939240 103.168480,207.197174 
	C104.421310,203.322266 106.622360,202.270493 110.696320,204.370743 
	C110.696320,208.337997 110.555489,212.459747 110.741280,216.566727 
	C110.887581,219.800980 109.630013,221.200348 106.002403,220.776199 
	C105.741592,219.390839 105.456680,217.877426 105.040504,215.666794 
	C103.714508,217.801849 102.723564,219.397415 101.547523,221.291016 
	C100.354385,219.284576 99.313255,217.533783 97.852600,215.077484 
	C97.180534,218.508057 97.420761,222.275543 92.017265,220.466431 
	C92.017265,217.986008 92.017265,215.225555 92.017265,212.465103 
	C92.017265,209.821762 92.017265,207.178436 92.017265,204.456482 
	C94.016754,203.877487 95.711601,203.386719 97.941971,202.740875 
	C98.724167,204.618576 99.456505,206.376587 100.376953,208.474457 
z"/>
<path fill="#060606" opacity="1.000000" stroke="none" 
	d="
M78.878677,208.074554 
	C78.944427,206.414398 79.007637,205.121857 79.080666,203.628632 
	C80.738655,203.628632 82.150322,203.628632 84.020462,203.628632 
	C84.020462,208.493668 84.131317,213.110413 83.934731,217.714020 
	C83.891052,218.736877 82.941154,220.285461 82.085762,220.550568 
	C81.229683,220.815857 79.693390,220.040665 78.944267,219.255157 
	C77.409561,217.645981 76.202217,215.724579 74.247055,213.112839 
	C74.247055,216.207123 74.247055,218.278214 74.247055,220.693390 
	C72.417442,220.693390 70.884445,220.693390 69.107513,220.693390 
	C69.107513,215.287140 69.107513,209.855881 69.107513,204.299164 
	C70.544113,203.986557 71.963737,203.677628 73.483948,203.346817 
	C75.027702,205.350815 76.522812,207.298615 78.037979,209.230667 
	C78.092857,209.300644 78.423241,209.276886 78.489853,209.191345 
	C78.659569,208.973526 78.752487,208.695892 78.878677,208.074554 
z"/>
<path fill="#0D0D0D" opacity="1.000000" stroke="none" 
	d="
M54.814156,207.685410 
	C55.455902,205.088013 55.600132,202.933838 58.956860,202.803192 
	C62.352566,202.671051 62.543098,204.850296 63.269508,207.000473 
	C64.574699,210.863861 65.952202,214.702820 67.457253,219.002731 
	C62.005215,219.494247 57.049595,219.941010 51.308315,220.458603 
	C52.489243,216.172501 53.603928,212.126831 54.814156,207.685410 
z"/>
<path fill="#2A92C1" opacity="1.000000" stroke="none" 
	d="
M160.643280,204.690857 
	C163.106018,204.229431 165.241028,203.935211 167.371811,203.963043 
	C173.121490,204.038177 176.392776,209.252045 172.781372,213.680557 
	C169.842468,217.284454 165.100159,219.417709 160.313629,222.799347 
	C160.313629,215.804718 160.313629,210.404831 160.643280,204.690857 
z"/>
<path fill="#0D0D0D" opacity="1.000000" stroke="none" 
	d="
M116.069794,221.069092 
	C113.162140,221.472305 111.752609,220.753540 112.081871,217.960037 
	C112.197487,216.979126 112.034035,215.968674 112.060333,214.973373 
	C112.396629,202.245529 109.845345,204.346405 123.694397,203.789963 
	C123.828880,204.207977 124.059563,204.649094 124.098366,205.106461 
	C124.166580,205.910553 124.117424,206.724579 124.117424,207.651062 
	C121.663307,208.034363 119.395508,208.388580 117.127716,208.742783 
	C117.169525,209.116547 117.211342,209.490311 117.253151,209.864075 
	C119.267403,209.864075 121.281654,209.864075 123.418854,209.864075 
	C125.822914,216.626022 118.668320,213.025452 117.084068,216.429138 
	C119.477348,216.277573 121.536972,216.147141 124.030495,215.989227 
	C124.651978,222.832596 119.483765,220.316025 116.069794,221.069092 
z"/>
<path fill="#2C92C0" opacity="1.000000" stroke="none" 
	d="
M188.844635,214.042908 
	C188.749863,211.336960 188.293396,208.927963 188.815598,206.754105 
	C189.161621,205.313751 190.909988,204.210312 192.030563,202.956039 
	C192.419830,203.242798 192.809097,203.529556 193.198364,203.816315 
	C193.592346,207.466232 193.986313,211.116150 194.434555,215.268677 
	C199.562927,213.158371 197.919922,209.458176 198.013687,206.738846 
	C198.131775,203.313965 199.261307,202.205231 202.910568,203.229218 
	C202.910568,206.554077 203.281784,210.048264 202.816086,213.427094 
	C202.241562,217.595276 199.522491,220.491013 195.235718,220.770309 
	C191.176620,221.034775 189.547653,218.028931 188.844635,214.042908 
z"/>
<path fill="#2C92BF" opacity="1.000000" stroke="none" 
	d="
M212.104126,203.235184 
	C214.627274,204.018158 218.459274,203.245682 216.534576,207.880402 
	C214.431244,208.048492 212.306747,208.218277 210.182236,208.388062 
	C210.183624,208.759857 210.185028,209.131668 210.186417,209.503464 
	C211.197052,209.678040 212.405273,209.561569 213.178146,210.086334 
	C214.914948,211.265457 217.769547,212.788589 217.743713,214.124771 
	C217.700851,216.340485 216.270798,219.453461 214.461578,220.464905 
	C212.435333,221.597641 209.323090,220.974243 206.716690,220.741745 
	C206.121094,220.688614 205.163177,219.029007 205.283905,218.250137 
	C205.398544,217.510620 206.636917,216.561172 207.506729,216.405487 
	C209.149979,216.111374 210.883316,216.320511 212.784348,215.832565 
	C209.645340,214.079666 204.358002,215.120148 204.946609,209.198868 
	C205.363571,205.004318 208.193405,203.791931 212.104126,203.235184 
z"/>
<path fill="#3ECCF3" opacity="1.000000" stroke="none" 
	d="
M266.979309,214.008118 
	C272.463593,221.521088 273.680359,230.941086 269.633270,236.106400 
	C267.078400,231.687073 264.568085,227.344864 261.921753,222.386169 
	C261.492340,221.523972 261.199036,221.278275 260.905701,221.032578 
	C260.905701,221.032578 260.984589,221.046921 260.987610,220.700211 
	C261.596100,218.190353 262.201630,216.027206 262.954987,213.335922 
	C263.613525,213.255157 264.845825,213.104034 266.078156,212.952911 
	C266.078156,212.952911 266.014923,212.991074 266.113647,213.187927 
	C266.468018,213.592545 266.723663,213.800323 266.979309,214.008118 
z"/>
<path fill="#2D92BE" opacity="1.000000" stroke="none" 
	d="
M175.383087,217.449051 
	C175.410400,213.539017 175.162933,210.026199 175.640076,206.614746 
	C175.841568,205.174103 177.569138,203.946899 178.603058,202.622681 
	C179.091141,202.882935 179.579224,203.143204 180.067307,203.403473 
	C180.280167,207.270065 180.493027,211.136658 180.715393,215.175919 
	C182.939819,215.175919 184.696014,215.175919 186.761566,215.175919 
	C186.761566,216.757065 186.761566,218.120209 186.761566,219.682343 
	C183.871109,220.003586 181.102631,220.581100 178.360352,220.475891 
	C177.342377,220.436829 176.385803,218.797058 175.383087,217.449051 
z"/>
<path fill="#39C5EB" opacity="1.000000" stroke="none" 
	d="
M269.147949,211.940521 
	C265.528595,208.525986 261.909271,205.111450 258.253784,201.101135 
	C258.481689,199.673782 258.745728,198.842178 259.364197,198.004898 
	C261.138763,196.788483 262.558838,195.577744 263.978912,194.367004 
	C266.328094,196.665680 268.677277,198.964355 270.811035,201.730164 
	C270.303589,203.142807 269.542755,204.761520 269.789581,204.933426 
	C273.811005,207.734238 271.305054,209.801086 269.147949,211.940521 
z"/>
<path fill="#767676" opacity="1.000000" stroke="none" 
	d="
M255.937225,142.998688 
	C259.543701,138.611374 263.150177,134.224045 266.582367,130.048721 
	C269.332214,137.478424 266.910004,143.586456 257.417542,150.950012 
	C257.493164,149.321182 257.776855,147.906113 258.374481,146.639099 
	C259.645721,143.943970 258.627899,142.953949 255.937225,142.998688 
z"/>
<path fill="#2DB2DC" opacity="1.000000" stroke="none" 
	d="
M259.009766,198.010574 
	C258.745728,198.842178 258.481689,199.673782 258.092041,200.812805 
	C253.435349,198.614548 248.904221,196.108856 244.486115,193.175629 
	C246.477203,190.467499 248.355270,188.186890 250.233337,185.906281 
	C253.063507,187.405945 255.893646,188.905609 258.517303,190.706360 
	C253.634552,193.831787 256.337769,195.919617 259.009766,198.010574 
z"/>
<path fill="#BFBFBF" opacity="1.000000" stroke="none" 
	d="
M227.162125,156.157913 
	C224.401215,157.585281 221.750137,159.353180 218.832367,160.294327 
	C217.403839,160.755127 214.068024,159.794464 214.025940,159.278732 
	C213.850677,157.131805 213.910416,154.280090 215.189606,152.878845 
	C216.686020,151.239624 219.540833,150.840454 222.523163,150.009918 
	C224.547348,152.130325 225.854736,154.144119 227.162125,156.157913 
z"/>
<path fill="#787A7B" opacity="1.000000" stroke="none" 
	d="
M260.791626,124.378189 
	C261.357971,123.399384 261.858398,122.743065 262.603119,121.885635 
	C265.538635,125.841438 263.658295,129.722641 261.440063,133.020569 
	C259.409546,136.039444 256.327332,138.350906 253.359192,140.780273 
	C253.002487,140.396378 252.995163,140.206345 252.991928,139.625763 
	C252.668442,137.246719 252.340866,135.258240 252.013290,133.269745 
	C254.917435,130.413391 257.821594,127.557030 260.791626,124.378189 
z"/>
<path fill="#0E0E0E" opacity="1.000000" stroke="none" 
	d="
M84.955589,208.280685 
	C84.218071,203.249954 87.106377,203.148071 90.641907,203.345963 
	C90.641907,208.870499 90.641907,214.290100 90.641907,220.013672 
	C88.988121,220.307510 87.257507,220.615021 84.954445,221.024231 
	C84.954445,216.627014 84.954445,212.685181 84.955589,208.280685 
z"/>
<path fill="#1581B9" opacity="1.000000" stroke="none" 
	d="
M210.239532,169.031662 
	C209.836548,168.564240 209.433563,168.096832 209.391510,167.267944 
	C211.275955,166.498123 212.799469,166.089767 214.322998,165.681412 
	C214.322998,165.681412 214.257629,165.831375 214.287323,166.046448 
	C214.654587,166.422363 214.992157,166.583221 215.329712,166.744095 
	C215.329712,166.744095 215.227692,166.833618 215.256134,167.050140 
	C215.565430,167.497330 215.846283,167.728027 216.127121,167.958725 
	C218.988983,169.701126 221.850845,171.443527 224.786530,173.766541 
	C223.564896,176.602051 222.269440,178.856934 220.973984,181.111832 
	C217.671265,177.672226 214.368546,174.232620 210.967102,170.230499 
	C210.749466,169.366211 210.539841,169.154114 210.239532,169.031662 
z"/>
<path fill="#2FB8E4" opacity="1.000000" stroke="none" 
	d="
M254.942383,215.165649 
	C252.385773,213.387421 249.829163,211.609192 247.120422,209.102051 
	C247.338150,205.225601 245.498413,200.769897 251.395721,200.894836 
	C253.084381,201.899185 254.773041,202.903519 256.708313,204.508743 
	C256.284058,208.461639 255.613235,211.813644 254.942383,215.165649 
z"/>
<path fill="#2DAAD9" opacity="1.000000" stroke="none" 
	d="
M251.164246,200.617920 
	C245.498413,200.769897 247.338150,205.225601 246.944382,208.828644 
	C244.381897,207.767838 241.843307,206.251511 239.244598,204.129974 
	C238.828293,200.602432 238.472107,197.680099 238.115921,194.757782 
	C242.388199,196.618851 246.660477,198.479919 251.164246,200.617920 
z"/>
<path fill="#47CDF1" opacity="1.000000" stroke="none" 
	d="
M269.246307,212.276169 
	C271.305054,209.801086 273.811005,207.734238 269.789581,204.933426 
	C269.542755,204.761520 270.303589,203.142807 270.920288,202.055298 
	C276.557098,208.794006 278.046021,216.352570 275.588989,225.738846 
	C273.193634,220.703262 271.269165,216.657547 269.246307,212.276169 
z"/>
<path fill="#3AC2E9" opacity="1.000000" stroke="none" 
	d="
M255.082245,215.456482 
	C255.613235,211.813644 256.284058,208.461639 256.963562,204.726212 
	C259.935577,206.999344 262.898895,209.655899 265.970184,212.632690 
	C264.845825,213.104034 263.613525,213.255157 262.954987,213.335922 
	C262.201630,216.027206 261.596100,218.190353 260.956787,220.725845 
	C259.022675,219.314560 257.122375,217.530945 255.082245,215.456482 
z"/>
<path fill="#1E8DC0" opacity="1.000000" stroke="none" 
	d="
M221.134064,181.410889 
	C222.269440,178.856934 223.564896,176.602051 225.015747,174.018692 
	C227.266586,174.746292 229.362045,175.802353 231.895447,177.224197 
	C232.571045,177.808731 232.851379,177.914795 233.174393,177.908157 
	C233.775314,178.057770 234.376236,178.207397 234.735901,178.652542 
	C230.015793,179.066177 228.743805,180.892426 231.240692,184.884796 
	C231.636658,185.517929 231.592758,186.426163 231.752228,187.207214 
	C228.266205,185.374802 224.780182,183.542389 221.134064,181.410889 
z"/>
<path fill="#989898" opacity="1.000000" stroke="none" 
	d="
M243.863220,147.366455 
	C241.116837,148.983582 238.370453,150.600708 235.292664,151.902130 
	C234.138428,149.335129 233.315613,147.083832 232.492813,144.832550 
	C236.122253,142.678604 239.751694,140.524673 243.690125,138.669754 
	C243.953812,141.768005 243.908508,144.567230 243.863220,147.366455 
z"/>
<path fill="#229ACD" opacity="1.000000" stroke="none" 
	d="
M231.779114,187.191711 
	C231.592758,186.426163 231.636658,185.517929 231.240692,184.884796 
	C228.743805,180.892426 230.015793,179.066177 234.914276,178.911865 
	C237.659485,179.885101 239.985077,180.894547 242.377930,182.293030 
	C237.746750,184.831039 237.384109,186.068115 239.995361,191.039459 
	C237.848679,190.128922 235.701981,189.218384 233.134064,187.888000 
	C232.454987,187.229721 232.150421,187.111847 231.799179,187.114532 
	C231.799179,187.114532 231.805984,187.176208 231.779114,187.191711 
z"/>
<path fill="#A9A9A9" opacity="1.000000" stroke="none" 
	d="
M232.158081,144.859314 
	C233.315613,147.083832 234.138428,149.335129 234.931274,152.014832 
	C232.517685,153.550369 230.134048,154.657471 227.456268,155.961243 
	C225.854736,154.144119 224.547348,152.130325 222.881500,150.013916 
	C225.623154,148.236237 228.723251,146.561157 232.158081,144.859314 
z"/>
<path fill="#1E8ABE" opacity="1.000000" stroke="none" 
	d="
M215.997116,181.099625 
	C219.956192,183.505920 223.915253,185.912216 227.668976,188.635925 
	C222.919327,188.819916 223.497681,192.395905 222.964279,195.166855 
	C220.783661,193.959290 218.603043,192.751709 216.216614,190.865631 
	C216.006241,187.157944 216.001678,184.128784 215.997116,181.099625 
z"/>
<path fill="#2396C5" opacity="1.000000" stroke="none" 
	d="
M223.144669,195.450577 
	C223.497681,192.395905 222.919327,188.819916 227.878586,188.921997 
	C230.321548,189.872253 232.349548,190.853867 234.420776,192.255829 
	C233.062866,193.290588 231.661728,193.904984 230.604553,194.368546 
	C231.886017,197.104279 232.897675,199.264023 233.909332,201.423767 
	C230.381241,199.527267 226.853149,197.630783 223.144669,195.450577 
z"/>
<path fill="#27A6D4" opacity="1.000000" stroke="none" 
	d="
M240.173080,191.312378 
	C237.384109,186.068115 237.746750,184.831039 242.689957,182.456848 
	C245.220596,183.264038 247.506485,184.296478 250.012848,185.617584 
	C248.355270,188.186890 246.477203,190.467499 244.283524,192.897995 
	C242.762207,192.560349 241.556503,192.072830 240.173080,191.312378 
z"/>
<path fill="#888888" opacity="1.000000" stroke="none" 
	d="
M244.239655,147.319153 
	C243.908508,144.567230 243.953812,141.768005 244.017242,138.589020 
	C245.786407,137.122833 247.537430,136.036407 249.638092,135.244446 
	C250.987778,137.031357 251.987808,138.523834 252.987839,140.016312 
	C252.995163,140.206345 253.002487,140.396378 253.023544,140.871429 
	C250.230209,143.194885 247.423141,145.233353 244.239655,147.319153 
z"/>
<path fill="#1880B6" opacity="1.000000" stroke="none" 
	d="
M215.821411,180.831223 
	C216.001678,184.128784 216.006241,187.157944 216.015686,190.591690 
	C214.430695,189.881363 212.840820,188.766449 211.118057,186.981461 
	C209.572922,184.936600 208.160675,183.561813 206.748444,182.187012 
	C206.748444,182.187012 206.859131,182.027588 206.929260,181.771545 
	C208.423141,179.974014 209.846893,178.432510 211.270630,176.891022 
	C212.728989,178.114944 214.187347,179.338882 215.821411,180.831223 
z"/>
<path fill="#B4B2B3" opacity="1.000000" stroke="none" 
	d="
M224.988419,160.977386 
	C227.436172,159.730255 229.883926,158.483124 232.712372,157.519989 
	C232.731659,160.547470 232.370285,163.290955 232.008896,166.034439 
	C230.894714,166.645432 229.780548,167.256424 228.294189,167.542847 
	C226.944153,165.137955 225.966293,163.057678 224.988419,160.977386 
z"/>
<path fill="#1579AC" opacity="1.000000" stroke="none" 
	d="
M211.145157,176.560303 
	C209.846893,178.432510 208.423141,179.974014 206.897781,181.863342 
	C206.086227,181.438248 205.376312,180.665329 204.363586,179.783264 
	C204.692245,175.848160 205.323685,172.022217 206.298523,168.091431 
	C208.101166,170.734253 209.560410,173.481934 211.145157,176.560303 
z"/>
<path fill="#23A0D2" opacity="1.000000" stroke="none" 
	d="
M234.120270,201.658203 
	C232.897675,199.264023 231.886017,197.104279 230.604553,194.368546 
	C231.661728,193.904984 233.062866,193.290588 234.705170,192.452545 
	C235.986847,192.856186 237.027374,193.483444 238.091904,194.434250 
	C238.472107,197.680099 238.828293,200.602432 239.052841,203.856354 
	C237.391205,203.422852 235.861221,202.657745 234.120270,201.658203 
z"/>
<path fill="#939393" opacity="1.000000" stroke="none" 
	d="
M252.143433,155.087936 
	C249.317581,156.931671 246.491714,158.775406 243.338287,160.267242 
	C242.990936,157.239471 242.971115,154.563629 242.951309,151.887772 
	C243.942093,151.235275 244.932877,150.582779 246.575378,150.018143 
	C248.865875,151.766647 250.504654,153.427292 252.143433,155.087936 
z"/>
<path fill="#A7A7A6" opacity="1.000000" stroke="none" 
	d="
M232.363190,165.989471 
	C232.370285,163.290955 232.731659,160.547470 233.056427,157.445526 
	C234.487518,156.202118 235.955215,155.317184 237.720047,154.746918 
	C238.734467,157.408905 239.451782,159.756256 240.169083,162.103592 
	C237.685211,163.383881 235.201355,164.664185 232.363190,165.989471 
z"/>
<path fill="#868686" opacity="1.000000" stroke="none" 
	d="
M252.445374,155.021957 
	C250.504654,153.427292 248.865875,151.766647 246.876129,149.978424 
	C248.752991,148.192657 250.980789,146.534485 253.577545,145.228058 
	C254.339584,148.077148 254.732681,150.574493 255.125778,153.071854 
	C254.332962,153.699890 253.540146,154.327942 252.445374,155.021957 
z"/>
<path fill="#31BCE5" opacity="1.000000" stroke="none" 
	d="
M259.364197,198.004898 
	C256.337769,195.919617 253.634552,193.831787 258.700745,190.994492 
	C260.566193,191.943878 262.041718,192.906204 263.748047,194.117767 
	C262.558838,195.577744 261.138763,196.788483 259.364197,198.004898 
z"/>
<path fill="#9D9D9D" opacity="1.000000" stroke="none" 
	d="
M240.474365,162.023956 
	C239.451782,159.756256 238.734467,157.408905 238.024017,154.660004 
	C239.443542,153.500320 240.856232,152.742188 242.610123,151.935913 
	C242.971115,154.563629 242.990936,157.239471 243.016418,160.351257 
	C242.274612,161.172913 241.527145,161.558624 240.474365,162.023956 
z"/>
<path fill="#2B7EAD" opacity="1.000000" stroke="none" 
	d="
M214.203094,165.359543 
	C212.799469,166.089767 211.275955,166.498123 209.366577,166.955933 
	C208.763062,163.875183 208.545380,160.744965 208.327682,157.614761 
	C208.733963,157.535370 209.140244,157.455978 209.546524,157.376587 
	C211.058746,159.930283 212.570969,162.483978 214.203094,165.359543 
z"/>
<path fill="#7D7D7D" opacity="1.000000" stroke="none" 
	d="
M255.379715,153.005524 
	C254.732681,150.574493 254.339584,148.077148 253.909393,145.119934 
	C254.386978,144.161423 254.901657,143.662781 255.676773,143.081421 
	C258.627899,142.953949 259.645721,143.943970 258.374481,146.639099 
	C257.776855,147.906113 257.493164,149.321182 257.100159,151.103516 
	C256.633301,152.004974 256.133484,152.472076 255.379715,153.005524 
z"/>
<path fill="#BFBFBF" opacity="1.000000" stroke="none" 
	d="
M224.669693,160.998779 
	C225.966293,163.057678 226.944153,165.137955 227.967926,167.561768 
	C227.223999,168.254669 226.434189,168.604034 225.286499,168.628021 
	C223.968872,166.225372 223.009109,164.148132 222.049347,162.070892 
	C222.816559,161.720657 223.583755,161.370422 224.669693,160.998779 
z"/>
<path fill="#D9D6D6" opacity="1.000000" stroke="none" 
	d="
M221.720276,162.158447 
	C223.009109,164.148132 223.968872,166.225372 224.961563,168.655823 
	C222.456818,167.746445 219.919144,166.483871 216.350861,164.708527 
	C218.733337,163.544540 220.062271,162.895279 221.720276,162.158447 
z"/>
<path fill="#7D7D7D" opacity="1.000000" stroke="none" 
	d="
M252.991928,139.625763 
	C251.987808,138.523834 250.987778,137.031357 249.971283,135.152344 
	C250.466797,134.290543 250.978745,133.815277 251.751984,133.304871 
	C252.340866,135.258240 252.668442,137.246719 252.991928,139.625763 
z"/>
<path fill="#1579AC" opacity="1.000000" stroke="none" 
	d="
M206.825867,182.509308 
	C208.160675,183.561813 209.572922,184.936600 210.981903,186.686707 
	C209.620193,185.651886 208.261749,184.241730 206.825867,182.509308 
z"/>
<path fill="#3AC2E9" opacity="1.000000" stroke="none" 
	d="
M266.904480,213.762329 
	C266.723663,213.800323 266.468018,213.592545 266.119324,213.151428 
	C266.294067,213.117584 266.561859,213.317062 266.904480,213.762329 
z"/>
<path fill="#3AC2E9" opacity="1.000000" stroke="none" 
	d="
M260.987305,221.310455 
	C261.199036,221.278275 261.492340,221.523972 261.856384,222.057739 
	C261.640991,222.093307 261.354950,221.840820 260.987305,221.310455 
z"/>
<path fill="#1E8DC0" opacity="1.000000" stroke="none" 
	d="
M231.896484,187.364807 
	C232.150421,187.111847 232.454987,187.229721 232.855438,187.672684 
	C232.663284,187.789810 232.328537,187.702438 231.896484,187.364807 
z"/>
<path fill="#229ACD" opacity="1.000000" stroke="none" 
	d="
M233.065796,177.692001 
	C232.851379,177.914795 232.571045,177.808731 232.202637,177.402435 
	C232.420593,177.120056 232.715698,177.207031 233.065796,177.692001 
z"/>
<path fill="#2B7EAD" opacity="1.000000" stroke="none" 
	d="
M210.313629,169.237976 
	C210.539841,169.154114 210.749466,169.366211 210.907715,169.894455 
	C210.726868,169.923248 210.540436,169.697708 210.313629,169.237976 
z"/>
<path fill="#2B7EAD" opacity="1.000000" stroke="none" 
	d="
M216.052811,167.696640 
	C215.846283,167.728027 215.565430,167.497330 215.266693,166.983093 
	C215.492035,166.944534 215.735275,167.189545 216.052811,167.696640 
z"/>
<path fill="#2B7EAD" opacity="1.000000" stroke="none" 
	d="
M215.245392,166.481964 
	C214.992157,166.583221 214.654587,166.422363 214.280838,165.964905 
	C214.550125,165.852142 214.855606,166.035980 215.245392,166.481964 
z"/>
<path fill="#787A7B" opacity="1.000000" stroke="none" 
	d="
M262.575134,119.836998 
	C262.329895,119.849426 262.218872,119.638115 262.181030,119.217453 
	C262.481628,119.138161 262.633362,119.339874 262.575134,119.836998 
z"/>
</svg>